<svg width="657.9px" height="122px" xmlns="http://www.w3.org/2000/svg" viewBox="-78.94687499999998 14 657.89375 122" style="background: rgba(0, 0, 0, 0)" preserveAspectRatio="xMidYMid"><defs><linearGradient id="editing-gradient-gradient" x1="0" x2="1" y1="0.5" y2="0.5" gradientUnits="objectBoundingBox"><stop offset="0" stop-color="#ff00ff"></stop><stop offset="1" stop-color="#00ffff"></stop></linearGradient></defs><g><g transform="matrix(1.4,0,0,1.4,-54.4,164.6)"><path d="M 3.3 -45.8 L -10.7 -45.8 L -2.5 -88 L 11.5 -88 L 3.3 -45.8 Z M 59 -44.5 L 59 -44.5 L 59 -44.5 Q 51.3 -44.5 51.3 -50.5 L 51.3 -50.5 L 51.3 -50.5 Q 51.3 -53.1 52.4 -58.2 L 52.4 -58.2 L 52.4 -58.2 Q 53.5 -63.3 53.9 -65.4 L 53.9 -65.4 L 53.9 -65.4 Q 54.8 -70 54.8 -71.5 L 54.8 -71.5 L 54.8 -71.5 Q 54.8 -74.8 52.4 -74.8 L 52.4 -74.8 L 52.4 -74.8 Q 50.8 -74.8 49.2 -72.6 L 49.2 -72.6 L 49.2 -72.6 Q 47.7 -70.4 47 -65.9 L 47 -65.9 L 43 -45.8 L 30.6 -44.5 L 34 -61.9 L 34 -61.9 Q 34.6 -64.8 35.1 -68.1 L 35.1 -68.1 L 35.1 -68.1 Q 35.6 -71.3 35.6 -71.8 L 35.6 -71.8 L 35.6 -71.8 Q 35.6 -74.8 33.4 -74.8 L 33.4 -74.8 L 33.4 -74.8 Q 32 -74.8 30.4 -72.6 L 30.4 -72.6 L 30.4 -72.6 Q 28.8 -70.4 27.9 -65.9 L 27.9 -65.9 L 24 -45.8 L 11.4 -44.5 L 18.1 -78.4 L 28.5 -79.7 L 27.4 -73.2 L 27.4 -73.2 Q 29.1 -76.7 32.2 -78.2 L 32.2 -78.2 L 32.2 -78.2 Q 35.2 -79.7 40 -79.7 L 40 -79.7 L 40 -79.7 Q 42.8 -79.7 44.6 -78.4 L 44.6 -78.4 L 44.6 -78.4 Q 46.4 -77 46.9 -74.8 L 46.9 -74.8 L 46.9 -74.8 Q 48 -77.1 50.8 -78.4 L 50.8 -78.4 L 50.8 -78.4 Q 53.6 -79.7 57 -79.7 L 57 -79.7 L 57 -79.7 Q 60.4 -79.7 62.1 -79 L 62.1 -79 L 62.1 -79 Q 63.8 -78.2 64.9 -77 L 64.9 -77 L 64.9 -77 Q 66.6 -74.8 66.6 -70.7 L 66.6 -70.7 L 66.6 -70.7 Q 66.6 -66.6 64.9 -58.3 L 64.9 -58.3 L 64.9 -58.3 Q 64 -54.2 64 -52.7 L 64 -52.7 L 64 -52.7 Q 64 -51.2 64.8 -50.3 L 64.8 -50.3 L 64.8 -50.3 Q 65.7 -49.4 67 -49.2 L 67 -49.2 L 67 -49.2 Q 66.3 -47.1 64.1 -45.8 L 64.1 -45.8 L 64.1 -45.8 Q 61.9 -44.5 59 -44.5 Z M 74.7 -47.7 L 74.7 -47.7 L 74.7 -47.7 Q 73.2 -49.4 72.5 -52 L 72.5 -52 L 72.5 -52 Q 71.8 -54.6 71.8 -58.9 L 71.8 -58.9 L 71.8 -58.9 Q 71.8 -63.2 73.3 -67.1 L 73.3 -67.1 L 73.3 -67.1 Q 74.8 -71 77.5 -73.8 L 77.5 -73.8 L 77.5 -73.8 Q 83 -79.7 92.1 -79.7 L 92.1 -79.7 L 92.1 -79.7 Q 95.3 -79.7 97.7 -78.6 L 97.7 -78.6 L 108.6 -79.7 L 103.9 -54.7 L 103.9 -54.7 Q 103.7 -54 103.7 -52.6 L 103.7 -52.6 L 103.7 -52.6 Q 103.7 -51.2 104.6 -50.3 L 104.6 -50.3 L 104.6 -50.3 Q 105.4 -49.4 106.7 -49.2 L 106.7 -49.2 L 106.7 -49.2 Q 106.1 -47.1 103.7 -45.8 L 103.7 -45.8 L 103.7 -45.8 Q 101.4 -44.5 98.8 -44.5 L 98.8 -44.5 L 98.8 -44.5 Q 96.2 -44.5 94.4 -45.5 L 94.4 -45.5 L 94.4 -45.5 Q 92.6 -46.5 92.1 -48.2 L 92.1 -48.2 L 92.1 -48.2 Q 91.1 -46.6 88.9 -45.5 L 88.9 -45.5 L 88.9 -45.5 Q 86.7 -44.5 83.8 -44.5 L 83.8 -44.5 L 83.8 -44.5 Q 80.9 -44.5 78.6 -45.3 L 78.6 -45.3 L 78.6 -45.3 Q 76.2 -46 74.7 -47.7 Z M 88.2 -73.7 L 88.2 -73.7 L 88.2 -73.7 Q 87.5 -72.5 86.8 -70.6 L 86.8 -70.6 L 86.8 -70.6 Q 86.2 -68.6 85.1 -63.4 L 85.1 -63.4 L 85.1 -63.4 Q 84.1 -58.2 84.1 -54.5 L 84.1 -54.5 L 84.1 -54.5 Q 84.1 -50.8 84.6 -49.7 L 84.6 -49.7 L 84.6 -49.7 Q 85.2 -48.6 86.2 -48.6 L 86.2 -48.6 L 86.2 -48.6 Q 88.3 -48.6 89.8 -50.6 L 89.8 -50.6 L 89.8 -50.6 Q 91.3 -52.5 91.9 -56 L 91.9 -56 L 95.3 -74.7 L 95.3 -74.7 Q 93.9 -75.9 92.3 -75.9 L 92.3 -75.9 L 92.3 -75.9 Q 90.8 -75.9 89.9 -75.4 L 89.9 -75.4 L 89.9 -75.4 Q 88.9 -74.8 88.2 -73.7 Z M 116.4 -72.5 L 116.4 -72.5 L 116.4 -72.5 Q 118.6 -75.6 121.9 -77.7 L 121.9 -77.7 L 121.9 -77.7 Q 125.1 -79.7 129.2 -79.7 L 129.2 -79.7 L 129.2 -79.7 Q 133.2 -79.7 135.1 -78.4 L 135.1 -78.4 L 147.7 -79.7 L 143.3 -55.1 L 143.3 -55.1 Q 141.1 -42.6 136.3 -37.7 L 136.3 -37.7 L 136.3 -37.7 Q 131.8 -33 123 -33 L 123 -33 L 123 -33 Q 116.3 -33 112.4 -35.1 L 112.4 -35.1 L 112.4 -35.1 Q 108.6 -37.2 108.6 -40.7 L 108.6 -40.7 L 108.6 -40.7 Q 108.6 -43.4 110.6 -44.9 L 110.6 -44.9 L 110.6 -44.9 Q 112.5 -46.4 115.6 -46.4 L 115.6 -46.4 L 115.6 -46.4 Q 118.3 -46.4 120.3 -45.1 L 120.3 -45.1 L 120.3 -45.1 Q 121.6 -44.5 122.1 -43.6 L 122.1 -43.6 L 122.1 -43.6 Q 120.7 -42.3 120.7 -40.2 L 120.7 -40.2 L 120.7 -40.2 Q 120.7 -37.5 123.2 -37.5 L 123.2 -37.5 L 123.2 -37.5 Q 127.5 -37.5 129.9 -47.6 L 129.9 -47.6 L 129.9 -47.6 Q 130.7 -50.3 131.2 -53.1 L 131.2 -53.1 L 131.2 -53.1 Q 128.3 -49.6 121.8 -49.6 L 121.8 -49.6 L 121.8 -49.6 Q 117.3 -49.6 114.7 -51.7 L 114.7 -51.7 L 114.7 -51.7 Q 112 -53.9 112 -59 L 112 -59 L 112 -59 Q 112 -62.2 113.1 -65.8 L 113.1 -65.8 L 113.1 -65.8 Q 114.2 -69.5 116.4 -72.5 Z M 124.7 -58.8 L 124.7 -58.8 L 124.7 -58.8 Q 124.7 -54.5 126.9 -54.5 L 126.9 -54.5 L 126.9 -54.5 Q 128.5 -54.5 129.9 -56.2 L 129.9 -56.2 L 129.9 -56.2 Q 131.1 -57.5 131.5 -59.5 L 131.5 -59.5 L 134.8 -75.9 L 134.8 -75.9 Q 134.5 -76 134.2 -76.1 L 134.2 -76.1 L 134.2 -76.1 Q 133.5 -76.4 132.7 -76.4 L 132.7 -76.4 L 132.7 -76.4 Q 128.8 -76.4 126.5 -70 L 126.5 -70 L 126.5 -70 Q 124.7 -65 124.7 -58.8 Z M 176.1 -56.6 L 176.1 -56.6 L 176.1 -56.6 Q 177.7 -55.5 177.7 -53.1 L 177.7 -53.1 L 177.7 -53.1 Q 177.7 -50.7 176.5 -49.2 L 176.5 -49.2 L 176.5 -49.2 Q 175.3 -47.6 173.3 -46.6 L 173.3 -46.6 L 173.3 -46.6 Q 169.2 -44.5 164.8 -44.5 L 164.8 -44.5 L 164.8 -44.5 Q 160.3 -44.5 157.8 -45.5 L 157.8 -45.5 L 157.8 -45.5 Q 155.2 -46.4 153.4 -48.2 L 153.4 -48.2 L 153.4 -48.2 Q 150 -51.6 150 -57.8 L 150 -57.8 L 150 -57.8 Q 150 -67.5 155.3 -73.4 L 155.3 -73.4 L 155.3 -73.4 Q 160.9 -79.7 170.7 -79.7 L 170.7 -79.7 L 170.7 -79.7 Q 176.8 -79.7 179.8 -77.1 L 179.8 -77.1 L 179.8 -77.1 Q 182 -75.2 182 -72.1 L 182 -72.1 L 182 -72.1 Q 182 -60.8 162.6 -60.8 L 162.6 -60.8 L 162.6 -60.8 Q 162.3 -59.2 162.3 -57.8 L 162.3 -57.8 L 162.3 -57.8 Q 162.3 -54.8 163.6 -53.7 L 163.6 -53.7 L 163.6 -53.7 Q 165 -52.6 167.4 -52.6 L 167.4 -52.6 L 167.4 -52.6 Q 169.8 -52.6 172.4 -53.7 L 172.4 -53.7 L 172.4 -53.7 Q 175 -54.8 176.1 -56.6 Z M 163 -63.6 L 163 -63.6 L 163 -63.6 Q 167.6 -63.6 170.2 -66.4 L 170.2 -66.4 L 170.2 -66.4 Q 172.8 -69.1 172.8 -73.4 L 172.8 -73.4 L 172.8 -73.4 Q 172.8 -74.8 172.3 -75.6 L 172.3 -75.6 L 172.3 -75.6 Q 171.7 -76.4 170.7 -76.4 L 170.7 -76.4 L 170.7 -76.4 Q 169.6 -76.4 168.6 -76 L 168.6 -76 L 168.6 -76 Q 167.7 -75.6 166.7 -74.2 L 166.7 -74.2 L 166.7 -74.2 Q 164.4 -71 163 -63.6 Z M 203.4 -68.2 L 203.4 -68.2 L 203.4 -68.2 Q 204.3 -70.6 204.3 -72.7 L 204.3 -72.7 L 204.3 -72.7 Q 204.3 -76.4 201.2 -76.4 L 201.2 -76.4 L 201.2 -76.4 Q 199.6 -76.4 198.3 -75 L 198.3 -75 L 198.3 -75 Q 197 -73.6 197 -71.8 L 197 -71.8 L 197 -71.8 Q 197 -70.5 198 -69.5 L 198 -69.5 L 198 -69.5 Q 199.5 -68.1 203.2 -65.8 L 203.2 -65.8 L 203.2 -65.8 Q 207 -63.4 208.4 -61.6 L 208.4 -61.6 L 208.4 -61.6 Q 209.9 -59.7 209.9 -57.1 L 209.9 -57.1 L 209.9 -57.1 Q 209.9 -54.5 208.6 -52.1 L 208.6 -52.1 L 208.6 -52.1 Q 207.4 -49.8 205.1 -48.1 L 205.1 -48.1 L 205.1 -48.1 Q 200.3 -44.5 192.7 -44.5 L 192.7 -44.5 L 192.7 -44.5 Q 188.5 -44.5 185.3 -46.7 L 185.3 -46.7 L 185.3 -46.7 Q 182.1 -48.8 182.1 -51.3 L 182.1 -51.3 L 182.1 -51.3 Q 182.1 -53.8 183.9 -55.3 L 183.9 -55.3 L 183.9 -55.3 Q 185.8 -56.7 188.4 -56.7 L 188.4 -56.7 L 188.4 -56.7 Q 191.1 -56.7 192.8 -55.7 L 192.8 -55.7 L 192.8 -55.7 Q 192 -53.6 192 -52.2 L 192 -52.2 L 192 -52.2 Q 192 -48 195.5 -48 L 195.5 -48 L 195.5 -48 Q 197.1 -48 198.1 -48.9 L 198.1 -48.9 L 198.1 -48.9 Q 199.1 -49.9 199.1 -51.5 L 199.1 -51.5 L 199.1 -51.5 Q 199.1 -54.8 193.6 -58.3 L 193.6 -58.3 L 193.6 -58.3 Q 189.1 -61.2 188.1 -62.4 L 188.1 -62.4 L 188.1 -62.4 Q 186.4 -64.4 186.4 -67 L 186.4 -67 L 186.4 -67 Q 186.4 -69.5 187.6 -72 L 187.6 -72 L 187.6 -72 Q 188.8 -74.4 191.1 -76.1 L 191.1 -76.1 L 191.1 -76.1 Q 195.7 -79.7 203.9 -79.7 L 203.9 -79.7 L 203.9 -79.7 Q 208 -79.7 210.5 -78 L 210.5 -78 L 210.5 -78 Q 213 -76.4 213 -73.6 L 213 -73.6 L 213 -73.6 Q 213 -70.7 211.3 -69.1 L 211.3 -69.1 L 211.3 -69.1 Q 209.6 -67.5 206.5 -67.5 L 206.5 -67.5 L 206.5 -67.5 Q 204.4 -67.5 203.4 -68.2 Z M 254.4 -66.4 L 267.4 -67.5 L 267.4 -67.5 Q 262.7 -57.4 262.7 -45.7 L 262.7 -45.7 L 262.7 -45.7 Q 261 -44.5 258.5 -44.5 L 258.5 -44.5 L 258.5 -44.5 Q 256 -44.5 254.4 -45.7 L 254.4 -45.7 L 254.4 -45.7 Q 252.8 -46.9 252.4 -48.1 L 252.4 -48.1 L 252.4 -48.1 Q 250.8 -46.4 248.3 -45.5 L 248.3 -45.5 L 248.3 -45.5 Q 245.7 -44.5 242.9 -44.5 L 242.9 -44.5 L 242.9 -44.5 Q 240.2 -44.5 237.8 -45.4 L 237.8 -45.4 L 237.8 -45.4 Q 235.4 -46.3 233.5 -48.3 L 233.5 -48.3 L 233.5 -48.3 Q 229.4 -52.6 229.4 -60.9 L 229.4 -60.9 L 229.4 -60.9 Q 229.4 -73.7 236.3 -81.4 L 236.3 -81.4 L 236.3 -81.4 Q 243.3 -89.3 255.8 -89.3 L 255.8 -89.3 L 255.8 -89.3 Q 264.4 -89.3 267.5 -84.8 L 267.5 -84.8 L 267.5 -84.8 Q 268.4 -83.4 268.4 -81.7 L 268.4 -81.7 L 268.4 -81.7 Q 268.4 -80 267.7 -78.6 L 267.7 -78.6 L 267.7 -78.6 Q 267 -77.1 265.8 -76 L 265.8 -76 L 265.8 -76 Q 263.1 -73.4 259.7 -73.4 L 259.7 -73.4 L 259.7 -73.4 Q 258.3 -73.4 257.1 -73.9 L 257.1 -73.9 L 257.1 -73.9 Q 257.3 -75.8 257.3 -78 L 257.3 -78 L 257.3 -78 Q 257.3 -80.3 257.1 -81.3 L 257.1 -81.3 L 257.1 -81.3 Q 257 -82.3 256.6 -83.2 L 256.6 -83.2 L 256.6 -83.2 Q 255.8 -84.9 253.9 -84.9 L 253.9 -84.9 L 253.9 -84.9 Q 252.1 -84.9 250.1 -82.9 L 250.1 -82.9 L 250.1 -82.9 Q 248.1 -81 246.5 -77.8 L 246.5 -77.8 L 246.5 -77.8 Q 243 -70.6 243 -62 L 243 -62 L 243 -62 Q 243 -58 244.5 -55.2 L 244.5 -55.2 L 244.5 -55.2 Q 246.2 -52.1 249.1 -52.1 L 249.1 -52.1 L 249.1 -52.1 Q 250.1 -52.1 251.1 -52.6 L 251.1 -52.6 L 251.1 -52.6 Q 252 -53.1 252.4 -53.5 L 252.4 -53.5 L 254.4 -66.4 Z M 273.3 -47.7 L 273.3 -47.7 L 273.3 -47.7 Q 271.8 -49.4 271.1 -52 L 271.1 -52 L 271.1 -52 Q 270.4 -54.6 270.4 -58.9 L 270.4 -58.9 L 270.4 -58.9 Q 270.4 -63.2 271.9 -67.1 L 271.9 -67.1 L 271.9 -67.1 Q 273.4 -71 276.1 -73.8 L 276.1 -73.8 L 276.1 -73.8 Q 281.6 -79.7 290.7 -79.7 L 290.7 -79.7 L 290.7 -79.7 Q 293.9 -79.7 296.3 -78.6 L 296.3 -78.6 L 307.2 -79.7 L 302.5 -54.7 L 302.5 -54.7 Q 302.3 -54 302.3 -52.6 L 302.3 -52.6 L 302.3 -52.6 Q 302.3 -51.2 303.2 -50.3 L 303.2 -50.3 L 303.2 -50.3 Q 304 -49.4 305.3 -49.2 L 305.3 -49.2 L 305.3 -49.2 Q 304.7 -47.1 302.3 -45.8 L 302.3 -45.8 L 302.3 -45.8 Q 300 -44.5 297.4 -44.5 L 297.4 -44.5 L 297.4 -44.5 Q 294.7 -44.5 293 -45.5 L 293 -45.5 L 293 -45.5 Q 291.2 -46.5 290.7 -48.2 L 290.7 -48.2 L 290.7 -48.2 Q 289.7 -46.6 287.5 -45.5 L 287.5 -45.5 L 287.5 -45.5 Q 285.3 -44.5 282.4 -44.5 L 282.4 -44.5 L 282.4 -44.5 Q 279.5 -44.5 277.1 -45.3 L 277.1 -45.3 L 277.1 -45.3 Q 274.8 -46 273.3 -47.7 Z M 286.8 -73.7 L 286.8 -73.7 L 286.8 -73.7 Q 286 -72.5 285.4 -70.6 L 285.4 -70.6 L 285.4 -70.6 Q 284.8 -68.6 283.7 -63.4 L 283.7 -63.4 L 283.7 -63.4 Q 282.7 -58.2 282.7 -54.5 L 282.7 -54.5 L 282.7 -54.5 Q 282.7 -50.8 283.2 -49.7 L 283.2 -49.7 L 283.2 -49.7 Q 283.8 -48.6 284.8 -48.6 L 284.8 -48.6 L 284.8 -48.6 Q 286.9 -48.6 288.4 -50.6 L 288.4 -50.6 L 288.4 -50.6 Q 289.9 -52.5 290.5 -56 L 290.5 -56 L 293.9 -74.7 L 293.9 -74.7 Q 292.5 -75.9 290.9 -75.9 L 290.9 -75.9 L 290.9 -75.9 Q 289.4 -75.9 288.4 -75.4 L 288.4 -75.4 L 288.4 -75.4 Q 287.5 -74.8 286.8 -73.7 Z M 326 -49.3 L 326 -49.3 L 326 -49.3 Q 324 -44.5 317.7 -44.5 L 317.7 -44.5 L 317.7 -44.5 Q 314.5 -44.5 312.4 -46.7 L 312.4 -46.7 L 312.4 -46.7 Q 310.7 -48.6 310.7 -50.7 L 310.7 -50.7 L 310.7 -50.7 Q 310.7 -55.5 313 -66 L 313 -66 L 317.7 -90.6 L 330.7 -91.9 L 324.4 -59.5 L 324.4 -59.5 Q 323.4 -54.7 323.4 -53.1 L 323.4 -53.1 L 323.4 -53.1 Q 323.4 -49.4 326 -49.3 Z M 346.7 -49.3 L 346.7 -49.3 L 346.7 -49.3 Q 344.7 -44.5 338.4 -44.5 L 338.4 -44.5 L 338.4 -44.5 Q 335.2 -44.5 333.1 -46.7 L 333.1 -46.7 L 333.1 -46.7 Q 331.5 -48.6 331.5 -50.7 L 331.5 -50.7 L 331.5 -50.7 Q 331.5 -55.5 333.7 -66 L 333.7 -66 L 338.4 -90.6 L 351.4 -91.9 L 345.2 -59.5 L 345.2 -59.5 Q 344.1 -54.7 344.1 -53.1 L 344.1 -53.1 L 344.1 -53.1 Q 344.1 -49.4 346.7 -49.3 Z M 378.1 -56.6 L 378.1 -56.6 L 378.1 -56.6 Q 379.7 -55.5 379.7 -53.1 L 379.7 -53.1 L 379.7 -53.1 Q 379.7 -50.7 378.5 -49.2 L 378.5 -49.2 L 378.5 -49.2 Q 377.2 -47.6 375.3 -46.6 L 375.3 -46.6 L 375.3 -46.6 Q 371.2 -44.5 366.7 -44.5 L 366.7 -44.5 L 366.7 -44.5 Q 362.3 -44.5 359.7 -45.5 L 359.7 -45.5 L 359.7 -45.5 Q 357.1 -46.4 355.4 -48.2 L 355.4 -48.2 L 355.4 -48.2 Q 352 -51.6 352 -57.8 L 352 -57.8 L 352 -57.8 Q 352 -67.5 357.3 -73.4 L 357.3 -73.4 L 357.3 -73.4 Q 362.9 -79.7 372.7 -79.7 L 372.7 -79.7 L 372.7 -79.7 Q 378.8 -79.7 381.8 -77.1 L 381.8 -77.1 L 381.8 -77.1 Q 384 -75.2 384 -72.1 L 384 -72.1 L 384 -72.1 Q 384 -60.8 364.6 -60.8 L 364.6 -60.8 L 364.6 -60.8 Q 364.3 -59.2 364.3 -57.8 L 364.3 -57.8 L 364.3 -57.8 Q 364.3 -54.8 365.6 -53.7 L 365.6 -53.7 L 365.6 -53.7 Q 366.9 -52.6 369.4 -52.6 L 369.4 -52.6 L 369.4 -52.6 Q 371.8 -52.6 374.4 -53.7 L 374.4 -53.7 L 374.4 -53.7 Q 377 -54.8 378.1 -56.6 Z M 365 -63.6 L 365 -63.6 L 365 -63.6 Q 369.6 -63.6 372.2 -66.4 L 372.2 -66.4 L 372.2 -66.4 Q 374.8 -69.1 374.8 -73.4 L 374.8 -73.4 L 374.8 -73.4 Q 374.8 -74.8 374.3 -75.6 L 374.3 -75.6 L 374.3 -75.6 Q 373.7 -76.4 372.6 -76.4 L 372.6 -76.4 L 372.6 -76.4 Q 371.5 -76.4 370.6 -76 L 370.6 -76 L 370.6 -76 Q 369.7 -75.6 368.7 -74.2 L 368.7 -74.2 L 368.7 -74.2 Q 366.4 -71 365 -63.6 Z M 406.2 -63.8 L 406.2 -63.8 L 406.2 -63.8 Q 408.5 -67.9 408.5 -72 L 408.5 -72 L 408.5 -72 Q 408.5 -74.8 406.6 -74.8 L 406.6 -74.8 L 406.6 -74.8 Q 405 -74.8 403.4 -72.2 L 403.4 -72.2 L 403.4 -72.2 Q 401.8 -69.5 401.2 -66.1 L 401.2 -66.1 L 397.9 -45.8 L 384.7 -44.5 L 391.2 -78.4 L 401.8 -79.7 L 400.6 -73.2 L 400.6 -73.2 Q 403.7 -79.7 410.8 -79.7 L 410.8 -79.7 L 410.8 -79.7 Q 414.5 -79.7 416.5 -77.8 L 416.5 -77.8 L 416.5 -77.8 Q 418.5 -75.9 418.5 -71.9 L 418.5 -71.9 L 418.5 -71.9 Q 418.5 -68 415.9 -65.5 L 415.9 -65.5 L 415.9 -65.5 Q 413.3 -63 408.9 -63 L 408.9 -63 L 408.9 -63 Q 407 -63 406.2 -63.8 Z M 439.9 -53 L 439.9 -53 L 439.9 -53 Q 436.6 -49.6 430.5 -49.6 L 430.5 -49.6 L 430.5 -49.6 Q 422.9 -49.6 421.3 -55.1 L 421.3 -55.1 L 421.3 -55.1 Q 420.8 -56.8 420.8 -58.6 L 420.8 -58.6 L 420.8 -58.6 Q 420.8 -60.5 421.1 -62.4 L 421.1 -62.4 L 424.2 -78.4 L 437.1 -79.7 L 433.6 -61.1 L 433.6 -61.1 Q 433.5 -60.2 433.3 -59.4 L 433.3 -59.4 L 433.3 -59.4 Q 433.1 -58.5 433.1 -57.5 L 433.1 -57.5 L 433.1 -57.5 Q 433.1 -56.6 433.4 -56 L 433.4 -56 L 433.4 -56 Q 433.8 -55.4 434.2 -55 L 434.2 -55 L 434.2 -55 Q 435 -54.5 436.3 -54.5 L 436.3 -54.5 L 436.3 -54.5 Q 437.7 -54.5 438.9 -56.2 L 438.9 -56.2 L 438.9 -56.2 Q 440.1 -57.8 440.7 -60.7 L 440.7 -60.7 L 444.2 -78.4 L 456.8 -79.7 L 452 -54.6 L 452 -54.6 Q 449.6 -42.3 444.8 -37.4 L 444.8 -37.4 L 444.8 -37.4 Q 442.3 -34.9 439 -33.9 L 439 -33.9 L 439 -33.9 Q 435.8 -32.9 431.6 -32.9 L 431.6 -32.9 L 431.6 -32.9 Q 424.9 -32.9 421.1 -35 L 421.1 -35 L 421.1 -35 Q 417.2 -37.1 417.2 -40.7 L 417.2 -40.7 L 417.2 -40.7 Q 417.2 -43.3 419.2 -44.8 L 419.2 -44.8 L 419.2 -44.8 Q 421.2 -46.3 424.3 -46.3 L 424.3 -46.3 L 424.3 -46.3 Q 427 -46.3 429 -45.1 L 429 -45.1 L 429 -45.1 Q 430.2 -44.4 430.8 -43.5 L 430.8 -43.5 L 430.8 -43.5 Q 429.3 -42.3 429.3 -40.2 L 429.3 -40.2 L 429.3 -40.2 Q 429.3 -37.3 431.9 -37.3 L 431.9 -37.3 L 431.9 -37.3 Q 436.1 -37.3 438.6 -47.1 L 438.6 -47.1 L 438.6 -47.1 Q 439.3 -49.9 439.9 -53 Z" fill="url(#editing-gradient-gradient)"></path></g></g><style>text {
  font-size: 64px;
  font-family: Arial Black;
  dominant-baseline: central;
  text-anchor: middle;
}</style></svg>